<svg width="256" height="256" viewBox="0 0 256 256" fill="none" xmlns="http://www.w3.org/2000/svg">
<rect width="256" height="256" fill="#1A1126"/>
<path d="M12.0649 114.128C12.9609 115.696 13.8942 117.077 14.8649 118.272C15.8729 119.467 16.9929 120.4 18.2249 121.072C19.4569 121.744 20.8569 122.08 22.4249 122.08C24.5156 122.08 26.1956 121.501 27.4649 120.344C28.7342 119.187 29.3689 117.712 29.3689 115.92C29.3689 114.165 28.9582 112.765 28.1369 111.72C27.3156 110.675 26.2329 109.835 24.8889 109.2C23.5822 108.528 22.1822 107.931 20.6889 107.408C19.7182 107.072 18.6356 106.643 17.4409 106.12C16.2462 105.56 15.1076 104.869 14.0249 104.048C12.9422 103.189 12.0462 102.144 11.3369 100.912C10.6649 99.68 10.3289 98.168 10.3289 96.376C10.3289 94.4347 10.8142 92.6987 11.7849 91.168C12.7556 89.6373 14.0996 88.4427 15.8169 87.584C17.5342 86.688 19.4942 86.24 21.6969 86.24C23.8249 86.24 25.6729 86.6507 27.2409 87.472C28.8462 88.256 30.2089 89.2827 31.3289 90.552C32.4489 91.784 33.3262 93.0907 33.9609 94.472L29.8729 96.824C29.3876 95.8533 28.7716 94.9013 28.0249 93.968C27.2782 93.0347 26.3636 92.2693 25.2809 91.672C24.2356 91.0747 22.9476 90.776 21.4169 90.776C19.2889 90.776 17.7396 91.2987 16.7689 92.344C15.7982 93.352 15.3129 94.4907 15.3129 95.76C15.3129 96.8427 15.5929 97.8507 16.1529 98.784C16.7129 99.68 17.6462 100.539 18.9529 101.36C20.2969 102.144 22.1076 102.928 24.3849 103.712C25.4302 104.085 26.5316 104.571 27.6889 105.168C28.8462 105.765 29.9102 106.531 30.8809 107.464C31.8889 108.36 32.7102 109.461 33.3449 110.768C33.9796 112.037 34.2969 113.568 34.2969 115.36C34.2969 117.077 33.9609 118.627 33.2889 120.008C32.6542 121.389 31.7582 122.565 30.6009 123.536C29.4809 124.507 28.1929 125.253 26.7369 125.776C25.3182 126.299 23.8249 126.56 22.2569 126.56C20.1289 126.56 18.1502 126.112 16.3209 125.216C14.5289 124.283 12.9422 123.069 11.5609 121.576C10.2169 120.045 9.11557 118.421 8.25691 116.704L12.0649 114.128ZM43.9206 106.96V102.48H70.8006V106.96H43.9206ZM67.6086 86.8H72.3686V126H67.6086V86.8ZM41.2886 86.8H46.0486V126H41.2886V86.8ZM85.0718 114.24L86.7518 109.76H104.112L105.792 114.24H85.0718ZM95.3198 95.648L88.7118 111.216L88.2638 112.224L82.4398 126H77.1198L95.3198 84.84L113.52 126H108.2L102.488 112.56L102.04 111.44L95.3198 95.648ZM118.289 86.8H123.049V126H118.289V86.8ZM130.049 126H120.921V121.24H130.049C132.251 121.24 134.267 120.904 136.097 120.232C137.926 119.523 139.494 118.533 140.801 117.264C142.107 115.957 143.115 114.389 143.825 112.56C144.534 110.731 144.889 108.677 144.889 106.4C144.889 104.123 144.534 102.069 143.825 100.24C143.115 98.4107 142.107 96.8613 140.801 95.592C139.494 94.2853 137.926 93.296 136.097 92.624C134.267 91.9147 132.251 91.56 130.049 91.56H120.921V86.8H130.049C133.857 86.8 137.235 87.6213 140.185 89.264C143.134 90.9067 145.449 93.2027 147.129 96.152C148.809 99.064 149.649 102.48 149.649 106.4C149.649 110.32 148.809 113.755 147.129 116.704C145.449 119.616 143.134 121.893 140.185 123.536C137.235 125.179 133.857 126 130.049 126ZM159.151 106.4C159.151 109.349 159.786 111.981 161.055 114.296C162.362 116.611 164.135 118.44 166.375 119.784C168.615 121.128 171.154 121.8 173.991 121.8C176.866 121.8 179.404 121.128 181.607 119.784C183.847 118.44 185.602 116.611 186.871 114.296C188.178 111.981 188.831 109.349 188.831 106.4C188.831 103.451 188.178 100.819 186.871 98.504C185.602 96.1893 183.847 94.36 181.607 93.016C179.404 91.672 176.866 91 173.991 91C171.154 91 168.615 91.672 166.375 93.016C164.135 94.36 162.362 96.1893 161.055 98.504C159.786 100.819 159.151 103.451 159.151 106.4ZM154.111 106.4C154.111 103.525 154.596 100.875 155.567 98.448C156.575 95.984 157.975 93.856 159.767 92.064C161.559 90.2347 163.668 88.816 166.095 87.808C168.522 86.7627 171.154 86.24 173.991 86.24C176.866 86.24 179.498 86.7627 181.887 87.808C184.314 88.816 186.423 90.2347 188.215 92.064C190.007 93.856 191.388 95.984 192.359 98.448C193.367 100.875 193.871 103.525 193.871 106.4C193.871 109.237 193.367 111.888 192.359 114.352C191.388 116.816 190.007 118.963 188.215 120.792C186.423 122.584 184.314 124.003 181.887 125.048C179.498 126.056 176.866 126.56 173.991 126.56C171.154 126.56 168.522 126.056 166.095 125.048C163.668 124.003 161.559 122.584 159.767 120.792C157.975 118.963 156.575 116.816 155.567 114.352C154.596 111.888 154.111 109.237 154.111 106.4ZM233.786 115.64L243.978 86.8H249.298L233.898 127.96L222.138 97.496L210.378 127.96L194.978 86.8H200.298L210.714 115.64L222.138 84.84L233.786 115.64Z" fill="#5C04BB"/>
<path d="M111.934 129.4H117.502V164.68L92.9739 140.44V163H87.4059V127.72L111.934 151.96V129.4ZM128.217 163V158.008H145.161V163H128.217ZM128.217 134.392V129.4H145.161V134.392H128.217ZM128.217 147.448V142.552H144.201V147.448H128.217ZM124.713 129.4H130.281V163H124.713V129.4ZM148.535 134.632V129.4H171.959V134.632H163.079V163H157.367V134.632H148.535Z" fill="#C6009A"/>
</svg>
